<?xml version="1.0" standalone="no"?>
<!DOCTYPE svg PUBLIC "-//W3C//DTD SVG 20010904//EN"
 "http://www.w3.org/TR/2001/REC-SVG-20010904/DTD/svg10.dtd">
<svg version="1.0" xmlns="http://www.w3.org/2000/svg"
 width="500.000000pt" height="500.000000pt" viewBox="0 0 500.000000 500.000000"
 preserveAspectRatio="xMidYMid meet">
<metadata>
Created by potrace 1.14, written by Peter Selinger 2001-2017
</metadata>
<g transform="translate(0.000000,500.000000) scale(0.100000,-0.100000)"
fill="#000000" stroke="none">
<path d="M1455 4777 c-3 -12 -15 -70 -25 -129 -21 -123 -16 -200 21 -312 12
-36 19 -69 16 -73 -4 -3 -20 0 -37 7 -30 12 -67 50 -129 131 l-33 44 6 -69
c12 -118 52 -183 167 -269 28 -20 126 -53 135 -45 3 3 -15 32 -40 65 -24 32
-48 72 -52 88 l-7 30 23 -20 c12 -11 29 -33 38 -50 17 -35 105 -120 142 -139
38 -19 74 -40 80 -47 3 -3 32 -13 65 -23 33 -9 71 -22 85 -28 23 -10 89 -12
99 -2 2 2 -17 28 -43 58 -25 30 -46 57 -46 61 0 4 -8 19 -19 33 -10 15 -28 61
-41 102 -26 89 -30 94 -89 126 -25 13 -54 30 -64 37 -26 17 -107 95 -107 102
0 4 -10 21 -23 38 -32 44 -83 180 -92 244 -8 59 -19 74 -30 40z"/>
<path d="M3605 4753 c-3 -27 -10 -55 -14 -63 -5 -9 -12 -31 -16 -49 -15 -71
-67 -160 -127 -220 -33 -34 -64 -61 -69 -61 -9 0 -70 -38 -111 -70 -14 -11
-29 -35 -33 -53 -20 -99 -65 -188 -131 -256 -55 -56 -40 -59 106 -24 91 21
209 85 274 148 47 45 103 111 109 129 2 6 8 8 12 4 10 -10 -34 -93 -67 -125
-44 -42 -37 -55 22 -37 113 34 213 131 246 239 26 89 11 156 -20 90 -10 -20
-24 -39 -32 -42 -8 -3 -14 -11 -14 -18 0 -7 -12 -21 -27 -31 -16 -10 -34 -24
-41 -31 -7 -7 -22 -13 -33 -13 -10 0 -19 -5 -19 -12 0 -6 -2 -9 -5 -7 -2 3 8
41 22 84 22 67 27 99 27 195 1 115 -25 270 -44 270 -5 0 -12 -21 -15 -47z"/>
<path d="M3201 4404 c-1 -33 -118 -179 -237 -296 -60 -59 -157 -153 -215 -210
-116 -114 -152 -172 -167 -271 -9 -59 -7 -162 4 -227 l6 -35 20 55 c10 30 24
71 30 90 20 66 79 176 120 223 22 27 86 86 142 132 124 102 161 141 219 228
48 71 68 122 88 224 10 46 10 67 2 85 -11 22 -12 22 -12 2z"/>
<path d="M1872 4332 c4 -74 10 -93 66 -210 29 -60 176 -219 247 -267 51 -33
175 -156 175 -172 0 -5 8 -18 18 -29 23 -24 52 -95 88 -209 l28 -90 7 40 c12
64 9 195 -5 256 -23 95 -46 129 -171 251 -66 65 -157 155 -203 199 -86 85
-193 211 -205 242 -3 9 -11 17 -17 17 -5 0 -10 11 -10 25 0 14 -5 25 -11 25
-8 0 -10 -24 -7 -78z"/>
<path d="M2485 4272 l-40 -19 38 -17 c42 -21 46 -31 16 -47 -12 -6 -19 -7 -15
-1 3 5 0 14 -7 20 -17 13 -67 21 -67 10 0 -5 -10 -13 -22 -19 -13 -5 -34 -16
-48 -24 -32 -19 -62 -19 -107 0 -50 21 -55 9 -11 -30 43 -40 106 -59 165 -50
l43 6 -11 -28 c-21 -54 -37 -148 -28 -165 5 -9 22 -31 38 -48 16 -18 49 -72
73 -121 25 -49 48 -86 51 -82 4 3 7 21 7 38 0 48 52 165 94 208 l36 38 -35 46
c-30 39 -35 54 -35 99 0 62 13 74 79 74 44 0 58 11 36 30 -8 7 -15 18 -15 25
0 7 -18 24 -40 39 -55 36 -140 44 -195 18z"/>
<path d="M2312 4058 c-31 -17 -36 -17 -65 -3 -43 21 -47 10 -9 -28 28 -27 39
-32 79 -31 35 1 51 6 65 24 24 30 23 36 -9 48 -22 7 -36 5 -61 -10z"/>
<path d="M3670 4061 c-47 -34 -112 -53 -170 -50 -50 3 -60 0 -105 -33 -27 -20
-76 -44 -110 -54 -73 -21 -86 -31 -51 -40 14 -3 26 -10 26 -14 0 -11 114 -30
177 -30 96 0 208 76 258 177 14 26 25 51 25 56 0 12 -24 7 -50 -12z"/>
<path d="M1370 4060 c0 -21 42 -92 76 -130 91 -101 257 -125 391 -57 l45 23
-58 13 c-63 14 -93 30 -137 70 -25 23 -37 26 -101 26 -62 0 -82 5 -136 33 -67
34 -80 38 -80 22z"/>
<path d="M1882 3860 c-35 -10 -78 -27 -96 -38 -36 -21 -171 -28 -193 -10 -7 5
-17 7 -23 3 -16 -10 59 -76 124 -109 52 -26 63 -28 134 -23 57 4 96 13 152 38
112 49 204 41 278 -24 12 -11 22 -16 22 -11 0 16 -24 64 -32 64 -5 0 -8 6 -8
13 0 16 -53 58 -110 87 -61 31 -163 35 -248 10z"/>
<path d="M2975 3868 c-34 -12 -84 -45 -103 -68 -61 -74 -91 -139 -44 -97 10
10 26 17 35 17 9 0 17 4 17 9 0 13 58 31 101 31 21 0 69 -12 106 -26 158 -61
208 -66 289 -29 56 26 64 31 115 76 36 33 37 43 2 34 -65 -17 -226 5 -208 28
3 4 2 5 -1 3 -3 -2 -33 5 -67 15 -69 21 -193 24 -242 7z"/>
<path d="M1966 3689 c-21 -5 -44 -16 -50 -25 -9 -11 -33 -15 -96 -16 -47 -1
-79 -3 -72 -5 6 -3 12 -11 12 -18 0 -7 21 -26 48 -41 63 -38 170 -41 249 -6
59 25 136 29 173 7 43 -25 51 -28 56 -22 13 12 -60 95 -100 116 -47 23 -145
27 -220 10z"/>
<path d="M2884 3680 c-50 -25 -79 -52 -99 -90 -14 -27 -14 -30 0 -30 8 0 15 4
15 8 0 4 22 16 50 26 55 20 96 16 145 -15 41 -24 148 -34 204 -19 24 6 61 27
83 49 l41 37 -75 2 c-52 1 -88 8 -123 23 -73 33 -187 37 -241 9z"/>
<path d="M2432 3179 c-41 -126 -96 -240 -134 -276 -24 -23 -28 -24 -22 -8 4
11 16 32 26 47 10 14 18 33 18 40 0 8 3 18 7 22 22 21 43 107 42 171 l0 70
-25 -70 c-42 -114 -76 -176 -129 -232 -27 -29 -53 -53 -57 -53 -4 0 -24 -11
-44 -25 -78 -53 -166 -20 -213 80 -30 63 -33 62 -46 -20 -5 -33 -1 -47 22 -82
28 -44 64 -64 135 -77 37 -7 149 24 174 48 35 34 67 57 71 52 7 -7 -25 -56
-36 -56 -5 0 -22 -11 -38 -24 -62 -51 -126 -78 -188 -80 -53 -1 -65 3 -106 32
-46 33 -90 102 -105 165 -11 46 -22 40 -35 -18 -23 -104 18 -203 103 -246 71
-36 134 -42 221 -19 236 60 423 357 395 629 -2 27 -9 15 -36 -70z"/>
<path d="M2621 3183 c-1 -58 3 -104 9 -108 6 -3 10 -20 10 -36 0 -16 19 -69
42 -117 34 -70 58 -103 123 -167 109 -109 152 -129 281 -133 116 -4 157 10
212 73 37 41 47 71 46 140 0 50 -33 154 -34 107 0 -36 -58 -155 -90 -183 -58
-54 -132 -62 -221 -25 -66 27 -69 29 -163 121 -80 79 -131 171 -184 335 l-31
95 0 -102z"/>
<path d="M2730 3183 c0 -89 27 -170 81 -243 26 -36 57 -72 69 -80 12 -8 31
-23 43 -33 31 -27 123 -50 168 -43 71 11 107 36 134 90 22 45 23 56 14 99 -13
56 -24 60 -33 12 -13 -66 -85 -125 -152 -125 -15 0 -55 16 -90 35 -92 52 -164
153 -209 293 -9 28 -18 52 -21 52 -2 0 -4 -26 -4 -57z"/>
<path d="M2536 2789 l-39 -50 -1 -107 c-1 -108 8 -144 49 -192 7 -8 15 -31 18
-50 4 -19 10 -60 15 -90 5 -31 5 -68 1 -85 -14 -46 6 -51 32 -8 21 33 24 49
22 126 0 48 -6 93 -11 100 -5 7 -21 45 -36 85 -30 86 -35 197 -11 255 33 80
14 87 -39 16z"/>
<path d="M2424 2724 c-32 -42 -110 -117 -128 -123 -6 -2 -24 -14 -41 -27 -30
-23 -118 -48 -207 -59 -27 -3 -48 -10 -48 -14 0 -15 108 -33 178 -29 63 3 77
8 129 43 71 50 125 120 142 186 7 28 11 52 8 55 -3 3 -18 -12 -33 -32z"/>
<path d="M2630 2747 c0 -34 43 -133 66 -150 13 -10 24 -24 24 -30 0 -14 89
-69 139 -86 47 -15 105 -14 173 5 65 19 76 34 22 34 -59 0 -171 30 -209 56
-20 13 -38 24 -41 24 -12 0 -84 66 -84 78 0 6 -5 12 -11 12 -6 0 -27 17 -45
37 -23 25 -34 32 -34 20z"/>
<path d="M2230 1985 l0 -420 107 0 108 0 5 203 5 202 195 -195 c192 -193 213
-208 275 -209 20 0 20 7 23 417 l2 417 -115 0 -115 0 -2 -194 -3 -194 -200
193 c-189 182 -202 193 -242 197 l-43 3 0 -420z"/>
<path d="M1530 1921 l0 -199 34 -6 c35 -7 66 0 78 18 4 6 8 32 8 58 0 38 4 48
20 53 11 3 24 3 30 0 6 -4 24 -4 40 0 28 6 30 9 30 56 0 27 -3 48 -7 48 -5 -1
-32 -1 -60 0 l-53 1 0 35 0 34 68 3 67 3 3 48 3 47 -130 0 -131 0 0 -199z"/>
<path d="M1858 2071 c-3 -28 -3 -117 0 -200 l5 -150 26 -5 c14 -2 70 -3 124
-2 108 3 117 7 117 64 0 35 0 35 -81 32 -44 -1 -79 16 -79 39 0 9 31 37 37 34
1 -2 23 -3 47 -3 l44 0 4 45 c3 47 -1 51 -56 45 -36 -3 -66 10 -66 30 0 17 8
19 68 22 l67 3 3 48 3 47 -129 0 -129 0 -5 -49z"/>
<path d="M3070 2076 c0 -36 4 -46 20 -51 11 -3 20 -11 20 -16 1 -5 1 -45 1
-89 0 -44 0 -87 -1 -95 0 -8 -8 -15 -19 -15 -19 0 -30 -35 -23 -72 6 -32 193
-39 213 -7 5 8 9 9 9 3 0 -14 63 -25 101 -17 19 4 36 18 51 42 38 63 51 65 75
14 23 -47 61 -67 114 -58 44 8 49 22 21 63 -56 82 -92 143 -92 157 0 9 23 49
50 89 28 40 50 79 50 85 0 7 -23 11 -65 11 -36 0 -65 -4 -65 -9 0 -4 -9 -20
-20 -34 -24 -31 -45 -26 -66 14 -14 27 -19 29 -74 29 -69 0 -73 -8 -36 -62 13
-20 36 -56 50 -81 26 -43 26 -47 11 -74 -27 -48 -59 -99 -81 -129 l-22 -28 -7
32 c-4 22 -14 34 -30 38 -22 5 -23 10 -23 100 -1 89 1 96 21 105 23 11 31 37
22 77 -5 21 -10 22 -105 22 l-100 0 0 -44z"/>
<path d="M1405 1420 c-30 -5 -36 -8 -22 -14 14 -7 17 -22 17 -102 0 -77 -3
-94 -15 -94 -8 0 -15 -4 -15 -10 0 -6 42 -10 105 -10 63 0 105 4 105 10 0 6
-4 10 -10 10 -5 0 -10 23 -10 51 0 73 -11 89 -65 89 l-45 0 5 35 c5 41 2 43
-50 35z m95 -153 c0 -58 -4 -68 -26 -60 -10 3 -14 22 -14 59 0 47 2 54 20 54
18 0 20 -7 20 -53z"/>
<path d="M2216 1404 c-6 -16 9 -44 25 -44 16 0 38 31 33 45 -8 20 -50 19 -58
-1z"/>
<path d="M3243 1406 c24 -18 26 -191 2 -200 -34 -13 -45 4 -45 69 0 74 1 73
-107 74 -68 1 -93 -9 -58 -23 22 -8 21 -116 -1 -116 -9 0 -14 -6 -12 -12 3 -8
20 -11 49 -9 52 3 56 6 40 25 -7 8 -11 34 -9 58 2 36 7 44 26 46 21 3 22 0 22
-52 0 -31 -4 -56 -10 -56 -5 0 -10 -4 -10 -10 0 -6 95 -10 265 -10 170 0 265
4 265 10 0 6 -4 10 -10 10 -6 0 -10 26 -10 59 0 35 -5 63 -13 69 -6 6 -50 11
-96 11 -80 0 -83 0 -67 -18 10 -11 16 -35 16 -69 0 -49 -2 -52 -25 -52 -24 0
-25 2 -25 69 0 47 -4 71 -12 74 -10 3 -10 7 1 20 19 23 7 47 -24 47 -19 0 -25
-5 -25 -21 0 -12 8 -28 18 -35 15 -12 14 -13 -10 -14 -16 0 -28 -4 -28 -10 0
-5 5 -10 10 -10 6 0 10 -26 10 -59 0 -64 -16 -83 -46 -54 -13 13 -15 34 -12
110 l3 93 -45 0 c-40 -1 -43 -2 -27 -14z m337 -141 c0 -48 -2 -55 -20 -55 -18
0 -20 7 -20 55 0 48 2 55 20 55 18 0 20 -7 20 -55z"/>
<path d="M1202 1394 c-27 -19 -30 -74 -4 -97 9 -8 36 -20 60 -27 36 -9 43 -15
40 -33 -5 -33 -49 -35 -82 -3 -32 33 -36 33 -36 -3 0 -35 13 -41 86 -41 60 0
94 22 94 63 0 29 -27 67 -47 67 -9 0 -32 5 -50 12 -25 9 -33 17 -31 33 5 33
51 32 82 -2 l26 -28 0 32 c0 19 -6 33 -16 37 -30 11 -100 6 -122 -10z"/>
<path d="M1813 1352 c-34 -3 -44 -19 -18 -28 12 -5 15 -24 15 -85 0 -62 -3
-81 -15 -85 -32 -13 -12 -24 43 -24 49 1 55 2 40 14 -10 7 -18 22 -18 32 0 16
6 19 38 16 49 -5 75 22 75 78 0 55 -26 82 -73 79 -20 -2 -40 -1 -45 2 -6 2
-25 3 -42 1z m95 -79 c-2 -36 -7 -49 -20 -51 -12 -2 -19 5 -24 22 -10 40 3 76
27 76 18 0 20 -5 17 -47z"/>
<path d="M1622 1334 c-32 -22 -32 -106 0 -128 28 -20 97 -20 123 0 28 21 29
109 1 130 -26 19 -96 18 -124 -2z m86 -49 c3 -43 -17 -83 -36 -71 -13 8 -17
98 -5 110 18 18 38 -1 41 -39z"/>
<path d="M1990 1340 c0 -5 5 -12 10 -15 6 -3 10 -44 10 -91 0 -49 -4 -84 -10
-84 -5 0 -10 -4 -10 -10 0 -5 23 -10 50 -10 28 0 50 5 50 10 0 6 -4 10 -10 10
-5 0 -10 10 -10 23 0 20 4 23 34 19 46 -5 76 27 76 81 0 60 -24 75 -116 76
-41 0 -74 -4 -74 -9z m128 -60 c3 -42 -10 -65 -32 -57 -11 5 -16 19 -16 52 0
42 2 46 23 43 17 -2 23 -10 25 -38z"/>
<path d="M2203 1336 c13 -10 17 -28 17 -70 0 -31 -4 -56 -10 -56 -5 0 -10 -4
-10 -10 0 -6 40 -10 101 -10 100 0 100 0 93 23 -8 24 -8 27 -6 75 2 25 6 32
22 32 18 0 20 -7 20 -55 0 -30 -4 -55 -10 -55 -5 0 -10 -4 -10 -10 0 -5 23
-10 50 -10 28 0 50 5 50 10 0 6 -4 10 -9 10 -4 0 -11 28 -14 61 -3 34 -11 65
-18 70 -7 4 -46 8 -86 8 -58 0 -73 -3 -73 -14 0 -8 5 -15 10 -15 15 0 13 -107
-2 -113 -15 -5 -50 6 -49 16 1 4 1 34 1 67 l0 60 -42 0 c-38 -1 -41 -2 -25
-14z"/>
<path d="M2545 1334 c-9 -10 -15 -34 -15 -63 0 -61 23 -85 75 -79 39 4 39 4
25 -23 -13 -23 -43 -25 -64 -4 -21 21 -28 19 -24 -7 3 -20 10 -23 57 -26 78
-5 91 11 91 108 0 60 3 79 15 84 38 14 9 25 -65 25 -58 0 -84 -4 -95 -15z m89
-30 c11 -30 6 -72 -10 -78 -30 -11 -34 -6 -34 44 0 42 3 50 19 50 10 0 22 -7
25 -16z"/>
<path d="M2855 1325 c-56 -55 -15 -135 69 -135 36 0 48 5 65 26 47 60 8 134
-69 134 -30 0 -47 -6 -65 -25z m85 -14 c14 -28 12 -64 -5 -87 -15 -19 -15 -19
-30 0 -24 31 -13 106 15 106 5 0 14 -9 20 -19z"/>
<path d="M3700 1330 c-29 -29 -28 -103 2 -124 43 -31 138 -13 138 25 0 14 -26
11 -40 -6 -17 -21 -37 -19 -50 4 -15 30 -14 31 41 31 l52 0 -7 33 c-3 17 -14
38 -23 45 -27 19 -90 15 -113 -8z m78 -28 c2 -16 -2 -20 -17 -19 -12 1 -21 8
-21 17 0 36 33 38 38 2z"/>
</g>
</svg>
